<svg width="185" height="219" viewBox="0 0 185 219" fill="none" xmlns="http://www.w3.org/2000/svg">
<rect width="185" height="219" fill="#010409"/>
<path d="M139.71 149.805C140.01 148.555 140.36 147.355 140.51 147.155C140.61 146.955 141.01 146.855 141.31 147.005C141.61 147.205 142.26 147.455 142.76 147.655C143.26 147.905 143.56 148.305 143.46 148.555C143.36 148.855 143.01 150.205 142.71 151.555C142.41 152.955 141.91 155.105 141.61 156.455C141.36 157.755 141.11 161.355 141.11 164.455C141.11 167.505 141.46 171.605 141.81 173.555C142.21 175.505 142.76 177.855 143.01 178.805C143.26 179.755 144.06 181.905 144.81 183.555C145.56 185.205 146.71 187.305 147.41 188.205C148.46 189.605 148.91 189.805 150.86 189.805C152.51 189.805 153.51 190.105 154.61 191.055C155.91 192.155 156.11 192.655 156.11 194.805C156.11 196.955 155.91 197.455 154.61 198.555C153.56 199.455 152.51 199.805 151.11 199.805C149.56 199.805 148.76 199.455 147.61 198.305C146.36 197.055 146.11 196.405 146.11 194.305C146.11 192.255 145.76 191.305 144.21 188.955C143.16 187.355 141.81 184.805 141.26 183.305C140.71 181.805 139.96 179.655 139.66 178.555C139.41 177.455 138.91 175.355 138.61 173.955C138.36 172.505 138.11 168.005 138.11 164.005C138.11 160.005 138.31 155.705 138.61 154.405C138.91 153.105 139.41 151.055 139.71 149.805Z" fill="#1E4396"/>
<path d="M27.0596 152.404C27.0596 149.454 27.2096 148.804 28.4596 147.104L29.8596 145.204L32.3596 147.704L31.2596 149.254C30.6096 150.104 30.1096 151.554 30.1096 152.404C30.1096 153.304 30.4096 154.904 30.8596 155.904C31.2596 156.954 32.4596 158.704 33.5096 159.804C34.5096 160.954 35.6596 161.854 36.0096 161.804C36.3096 161.804 37.5596 161.254 38.7596 160.604C39.9096 159.954 41.7596 158.954 42.8596 158.304C43.9596 157.704 46.2596 156.204 51.1096 152.804H55.8596C59.3096 152.804 60.6096 152.954 60.6096 153.404C60.6096 153.754 60.0596 154.604 59.4096 155.304C58.3596 156.354 57.7596 156.504 55.0096 156.454C52.3096 156.404 51.5596 156.604 49.8596 157.754C48.7596 158.504 46.3096 160.004 44.4096 161.104C42.5096 162.154 40.8096 163.254 40.6596 163.504C40.5096 163.704 40.7096 164.104 41.1096 164.354C41.5096 164.604 42.8596 164.904 44.1096 165.054C45.3596 165.204 47.2596 165.554 48.3596 165.804C49.4596 166.054 51.8096 166.604 53.6096 167.054C55.4096 167.454 57.5596 168.154 58.3596 168.554C59.1596 169.004 61.0096 169.304 62.3596 169.304C64.3096 169.304 65.0596 169.504 65.9096 170.404C66.5096 171.054 67.1596 172.104 67.3596 172.804C67.5596 173.504 67.5596 174.604 67.4096 175.304C67.2596 176.004 66.5096 177.154 65.8096 177.904C64.7596 179.004 64.0096 179.304 62.4096 179.304C60.7096 179.254 60.0596 178.954 58.7596 177.554C57.4096 176.154 57.1096 175.404 57.1096 173.654C57.1592 171.572 57.1104 171.555 54.5723 170.676L54.5096 170.654C53.0596 170.104 50.4096 169.404 48.6096 169.004C46.8096 168.604 44.6596 168.304 43.8596 168.304C43.0596 168.304 41.3596 168.004 40.1096 167.604C38.8596 167.254 36.9096 166.454 35.7596 165.854C34.5596 165.304 32.6596 163.854 31.4596 162.654C30.3096 161.504 28.8596 159.504 28.2096 158.154C27.4096 156.504 27.1096 154.804 27.0596 152.404Z" fill="#1E4396"/>
<path d="M22.0096 110.255C21.9596 109.005 22.1096 107.805 22.3596 107.655C22.6096 107.455 23.1596 107.655 23.5596 108.055C24.0096 108.455 24.6596 108.805 24.9596 108.805C25.3596 108.805 25.5096 109.205 25.3596 109.805C25.2096 110.455 25.6096 111.355 26.4596 112.355C27.2596 113.255 28.6596 114.355 29.6096 114.805C30.5596 115.305 31.8096 116.205 32.3596 116.805C33.0596 117.555 33.3596 118.605 33.3596 120.255C33.3596 121.605 32.9096 123.555 32.2096 125.055C31.5596 126.455 31.1596 127.855 31.3096 128.205C31.4596 128.505 32.4596 129.155 33.4596 129.605C34.5096 130.055 35.8096 130.605 36.3596 130.805C36.9096 131.055 38.1596 131.505 39.1096 131.855C40.0596 132.205 41.1596 132.705 41.5096 133.005C41.8596 133.305 42.1596 133.955 42.1096 134.455C42.1096 134.905 41.6096 135.405 40.9596 135.555C40.3596 135.705 38.5596 135.805 37.0096 135.805C34.2596 135.805 34.1096 135.855 34.1096 137.055C34.1096 137.755 34.3096 138.405 34.6096 138.555C34.9096 138.705 35.1096 139.705 35.1096 140.805C35.1096 141.905 34.6596 143.705 34.1096 144.805C33.5596 145.905 32.8096 146.955 32.4596 147.105C32.1596 147.305 31.4596 147.005 30.9596 146.505C30.1596 145.605 30.1596 145.455 32.2096 141.055L31.1596 138.555C30.5596 137.205 30.1096 135.755 30.1096 135.455C30.1096 135.105 30.4096 134.355 30.7096 133.805C31.2596 132.955 31.1596 132.655 29.7096 131.205C28.4096 129.905 28.0596 129.155 28.1096 127.705C28.1096 126.605 28.5596 125.205 29.1096 124.455C29.8096 123.555 30.1596 122.305 30.1096 120.955C30.1096 118.905 29.9596 118.705 27.5096 117.205C26.0596 116.305 24.2596 114.905 23.5096 114.055C22.4596 112.905 22.1096 112.005 22.0096 110.255Z" fill="#2B54AB"/>
<path d="M159.11 113.055C159.66 110.855 160.11 108.555 160.11 107.955V107.905C160.11 106.955 160.36 106.805 163.61 106.805L163.36 109.155C163.21 110.505 162.81 112.455 162.51 113.555C162.21 114.655 161.51 116.905 161.01 118.555C160.46 120.205 159.06 123.605 157.86 126.055C156.71 128.505 154.91 131.755 153.91 133.155C152.36 135.405 152.11 136.205 152.11 138.555C152.11 140.955 151.91 141.505 150.56 142.805C149.41 143.955 148.56 144.305 147.06 144.305C145.26 144.305 145.06 144.455 144.51 146.055C144.01 147.355 143.61 147.805 142.91 147.705C142.41 147.605 141.71 147.155 141.41 146.705C141.01 146.055 141.01 145.555 141.51 144.805C141.81 144.255 142.11 142.205 142.11 140.155C142.11 137.105 142.31 136.355 143.26 135.405C144.11 134.555 144.91 134.305 146.61 134.305C148.31 134.305 149.11 134.055 149.96 133.205C150.51 132.555 151.46 131.205 152.06 130.155C152.66 129.155 153.51 127.555 154.01 126.655C154.51 125.805 155.66 123.255 156.51 121.055C157.36 118.855 158.56 115.255 159.11 113.055Z" fill="#2B54AB"/>
<path d="M84.4096 110.905C84.8096 109.505 85.1596 107.855 85.2096 107.255C85.2596 106.555 85.5096 106.305 85.9596 106.505C86.3096 106.655 87.0596 106.805 87.6096 106.805C88.5096 106.805 88.5596 107.055 88.3096 108.905C88.1596 110.105 87.6096 112.505 87.0596 114.305C86.5096 116.105 85.7096 118.305 85.3096 119.155C84.9596 120.055 84.2096 121.655 83.7596 122.655C83.2596 123.705 81.9596 126.055 80.8596 127.905C79.7596 129.705 76.9096 133.605 74.5096 136.505C72.0596 139.405 68.1096 143.555 65.6096 145.655C61.7096 149.055 61.1096 149.755 61.1096 152.805H51.1096V150.805C51.1096 149.055 51.3596 148.655 53.0096 147.455C54.6096 146.305 55.1596 146.154 59.6096 146.805L64.3596 142.155C67.6596 139.005 69.1596 137.205 69.1096 136.405C69.1096 135.805 68.9096 135.205 68.6096 135.055C68.3096 134.905 67.2596 133.505 66.1596 131.905C65.1096 130.355 63.3596 127.355 62.2596 125.305C61.2096 123.255 59.7096 120.055 58.9596 118.155C58.2096 116.305 57.6096 114.655 57.6096 114.405C57.6096 114.205 58.2096 113.755 59.0096 113.455C60.0596 112.955 60.4096 112.955 60.7096 113.455C60.9096 113.755 61.1096 114.355 61.1096 114.655C61.1096 115.005 61.3096 115.705 61.5596 116.155C61.8096 116.655 62.9596 119.105 64.1096 121.555C65.2596 124.005 67.3096 127.705 68.6596 129.655C70.0096 131.655 71.4096 133.455 71.7596 133.605C72.1096 133.805 72.7596 133.405 73.2596 132.755C73.7596 132.105 75.2596 129.955 76.5596 128.055C77.9096 126.105 79.6596 123.205 80.4596 121.555C81.3096 119.905 82.3596 117.405 82.8596 116.055C83.3096 114.655 84.0096 112.355 84.4096 110.905Z" fill="#2B54AB"/>
<path d="M140.31 113.555C143.26 112.055 144.96 110.805 146.96 108.505C149.11 106.055 149.76 105.655 150.06 106.255C150.31 106.705 150.86 107.155 151.36 107.305C152.11 107.505 151.66 108.205 149.06 110.955C146.76 113.455 144.91 114.855 142.36 116.105C140.41 117.055 137.31 118.155 135.36 118.555C133.41 118.955 131.06 119.305 130.11 119.305C129.16 119.255 127.11 118.955 125.61 118.605C124.11 118.205 122.41 117.755 121.86 117.555C121.31 117.355 120.16 116.905 119.36 116.555C118.56 116.205 116.76 114.905 115.41 113.705C114.06 112.505 112.51 110.905 110.86 108.705L113.06 106.555L115.21 109.005C116.41 110.355 118.26 112.055 119.36 112.805C120.46 113.505 122.36 114.455 123.61 114.855C125.01 115.305 127.86 115.555 131.11 115.555C136.21 115.505 136.46 115.455 140.31 113.555Z" fill="#2B54AB"/>
<path d="M106.06 88.7045C106.36 87.9045 107.36 86.8545 108.26 86.3045H108.21C109.11 85.7545 110.26 85.3045 110.71 85.3045C111.21 85.3045 112.31 85.6545 113.11 86.0545C113.91 86.4545 114.96 87.4545 115.36 88.3045C115.76 89.1545 116.11 90.2545 116.11 90.8045C116.11 91.3545 115.86 92.3045 115.61 92.9045C115.31 93.5545 114.21 94.5545 113.11 95.1545C111.21 96.2545 111.11 96.4045 111.11 98.8045C111.11 100.155 111.56 102.505 112.11 103.905C113.01 106.405 113.06 106.605 112.21 107.455C111.76 107.955 111.21 108.355 110.96 108.305C110.76 108.305 110.31 107.555 109.91 106.655C109.51 105.805 108.96 104.255 108.66 103.305C108.36 102.355 108.11 100.255 108.11 98.6545C108.11 96.6545 107.81 95.4045 107.16 94.4545C106.61 93.6545 106.01 92.4045 105.86 91.5545C105.66 90.7045 105.76 89.4545 106.06 88.7045Z" fill="#3966C6"/>
<path d="M158.51 76.0545C158.16 74.9545 157.71 73.7545 157.41 73.4545V73.4045C157.01 72.9545 157.31 72.8045 158.86 72.8045C160.76 72.8045 160.91 72.9045 161.46 74.6545C161.81 75.7045 162.31 77.6545 162.56 79.0545C162.86 80.4045 163.31 82.9045 163.61 84.5545C163.86 86.2045 164.11 91.1545 164.11 95.5545C164.11 99.9545 163.96 104.305 163.76 105.205C163.41 106.655 163.16 106.805 161.71 106.805C160.31 106.805 160.16 106.655 160.36 105.655C160.51 105.055 160.76 102.055 160.96 99.0545C161.11 95.8545 161.01 91.2545 160.66 88.0545C160.36 85.0045 159.86 81.5545 159.56 80.3045C159.26 79.0545 158.81 77.1545 158.51 76.0545Z" fill="#3966C6"/>
<path d="M92.2596 71.7045C92.0096 71.5045 92.2596 70.5545 92.7596 69.5545C93.2596 68.6045 93.8096 67.8045 94.0096 67.8045C94.2096 67.7545 94.6596 68.0545 94.9596 68.4045C95.4596 68.9045 95.3096 69.3545 94.1096 70.5545C93.3096 71.4045 92.4596 71.9045 92.2596 71.7045Z" fill="#071023"/>
<path d="M56.3096 65.7046L56.3096 65.7045C56.5596 64.4545 56.7596 64.3545 58.2096 64.6545C59.1096 64.8045 59.9096 64.9545 59.9596 65.0045C60.0096 65.0545 59.7096 66.3045 59.3096 67.8045C58.9096 69.3045 58.2596 72.5045 57.8596 74.9045C57.3596 77.8045 57.1096 82.6545 57.1096 98.8045L58.8596 99.8045C59.8096 100.355 60.8596 101.255 61.1096 101.805C61.4096 102.355 61.6096 103.555 61.6096 104.455C61.6596 105.305 61.2096 106.655 60.6096 107.455C59.9096 108.405 59.6596 109.305 59.8596 110.555C60.0096 111.555 59.8596 112.605 59.5096 113.055C59.1596 113.505 58.4596 113.855 58.0096 113.805C57.5096 113.805 57.1096 113.455 57.1096 113.055C57.1096 112.655 56.7596 111.655 56.3596 110.805C55.9596 109.955 55.2596 109.305 54.8596 109.305C54.4596 109.305 53.5596 108.655 52.8596 107.805C52.0096 106.755 51.6096 105.705 51.6096 104.305C51.6096 102.905 52.0096 101.855 52.8596 100.805C54.1096 99.3045 54.1096 99.3045 53.6096 93.7045C53.2596 89.8545 53.2596 86.3045 53.6096 82.5545C53.9096 79.5045 54.3596 75.7045 54.6596 74.0545C54.9596 72.4045 55.3596 70.1545 55.6096 69.0545C55.8596 67.9545 56.1596 66.4546 56.3096 65.7046Z" fill="#3966C6"/>
<path d="M140.21 66.1045C140.71 65.8045 141.11 65.1545 141.16 64.6545C141.21 63.8045 141.26 63.8045 142.71 64.6545C143.56 65.1545 145.56 66.8545 147.16 68.4045C148.81 70.0045 150.81 72.3545 151.61 73.6545C152.46 75.0045 153.86 77.8545 154.71 80.0545C156.26 83.9045 156.31 84.3545 156.31 91.0545C156.26 97.4045 156.16 98.3545 154.91 101.554C154.16 103.454 153.26 105.555 152.86 106.154C152.46 106.805 151.71 107.254 151.21 107.154C150.71 107.104 150.31 106.554 150.21 105.804C150.16 105.104 150.26 104.354 150.51 104.054C150.76 103.754 151.51 102.104 152.16 100.304C153.11 97.6045 153.31 96.0545 153.31 91.3045C153.31 87.8045 153.06 84.7545 152.66 83.5545C152.31 82.4545 151.26 80.1045 150.41 78.3045C149.51 76.4545 147.61 73.7045 145.86 71.8545C144.21 70.1545 142.06 68.2545 141.11 67.6545C139.56 66.7545 139.46 66.5545 140.21 66.1045Z" fill="#3966C6"/>
<path d="M95.0096 69.7545C96.3096 68.4545 98.6096 66.6045 100.11 65.6045C101.61 64.6045 102.96 63.8045 103.06 63.8045C103.21 63.8045 103.61 64.4545 103.96 65.3045C104.61 66.7545 104.56 66.8545 102.76 67.9545C101.71 68.5545 99.8596 69.9545 98.6096 71.0045C97.3596 72.1045 95.4096 74.1045 94.2096 75.5045C93.0096 76.9045 91.2596 79.6545 90.3096 81.5545C89.1096 84.0045 88.6096 85.7545 88.6096 87.3045C88.6096 89.2545 88.8596 89.8045 90.3596 91.2045C91.8596 92.6045 92.1096 93.1045 92.1096 95.2045C92.1096 97.1545 91.9096 97.8045 90.6096 99.0545C89.3096 100.355 89.1096 100.905 89.1096 103.055C89.1096 104.455 88.9096 105.855 88.7096 106.205C88.5096 106.555 87.8096 106.805 87.1096 106.705C85.9596 106.555 85.8596 106.355 85.7096 103.555C85.6096 100.855 85.4096 100.355 83.8596 98.8045C82.3596 97.3545 82.1096 96.7045 82.1096 94.9545C82.1096 93.2545 82.4096 92.5045 83.6096 91.3045C84.8096 90.1045 85.1096 89.3545 85.1096 87.7045C85.1096 86.5045 85.4596 83.7545 85.8596 81.5545C86.2596 79.3545 86.8096 76.7545 87.0596 75.8045C87.3096 74.8545 87.7596 73.4045 88.0096 72.5545C88.2596 71.7045 89.1596 69.5545 90.0596 67.7045C91.6096 64.3545 91.6096 64.3045 93.2096 64.6045C94.1096 64.8045 94.9096 64.9545 95.0096 65.0045C95.0596 65.0545 94.3596 66.4545 93.5096 68.1545C92.6096 69.9045 92.0096 71.4545 92.2596 71.6545C92.4596 71.9045 93.7096 71.0045 95.0096 69.7545Z" fill="#3966C6"/>
<path d="M46.0097 71.8045C46.8597 69.7545 48.0097 67.0045 48.5597 65.7045C49.5597 63.4545 49.7097 63.3545 51.2597 63.6545C52.1097 63.8045 52.9097 63.9545 52.9097 64.0045C52.9597 64.0545 52.6097 64.9545 52.1097 66.0545C51.5597 67.1545 50.6097 69.3045 49.9097 70.8045C49.2597 72.3045 48.3097 74.5545 47.9097 75.8045C47.4597 77.0545 46.8597 80.4045 46.6597 83.3045C46.3097 87.2045 45.9097 89.1045 45.0097 90.7545C44.3597 91.9545 43.1597 93.5045 42.3097 94.2545C41.4597 94.9545 39.3097 96.5545 37.5597 97.8045C35.8097 99.0545 32.3597 102.005 29.9597 104.455C27.5097 106.855 25.2597 108.805 24.9597 108.805C24.6097 108.855 24.0597 108.505 23.7597 108.055C23.2097 107.455 23.3097 107.055 24.0597 105.955C24.6097 105.155 26.6597 102.955 28.7097 101.005C30.7097 99.0545 33.5097 96.7045 34.8597 95.7545C36.2597 94.8545 38.3597 93.2045 39.5597 92.0545C40.7597 90.9545 42.0597 89.4545 42.4097 88.7045C42.8097 87.9045 43.1097 85.8545 43.1097 84.0545C43.1097 82.2545 43.4097 79.6045 43.8097 78.2045C44.2097 76.7545 45.2097 73.8545 46.0097 71.8045Z" fill="#3966C6"/>
<path d="M152.66 66.1045C153.06 65.3045 153.91 64.2545 154.56 63.7045C155.26 63.2045 156.61 62.8045 157.71 62.8045C158.976 62.8045 160.026 63.1878 160.86 63.9545C161.56 64.5545 162.26 65.8045 162.41 66.8045C162.61 67.9545 162.41 69.3045 161.76 70.7045C160.86 72.7545 160.81 72.8045 158.36 72.8045C156.66 72.8545 155.46 72.5545 154.61 71.9045C153.91 71.4045 153.06 70.2045 152.66 69.2545C152.11 67.8045 152.11 67.3545 152.66 66.1045Z" fill="#477AE5"/>
<path d="M113.11 59.8545C114.36 59.5545 115.91 59.2045 116.61 59.1045C117.31 58.9545 120.46 58.9545 123.61 59.1045C126.76 59.2045 130.46 59.6045 131.86 60.0045C133.21 60.4045 135.36 61.1045 136.61 61.6045C137.86 62.1045 139.36 62.8045 139.96 63.1545C140.61 63.5045 141.11 64.2545 141.11 64.8045C141.11 65.4045 140.71 65.9045 140.11 66.0545C139.56 66.2045 138.16 65.8545 137.01 65.3545C135.81 64.8545 134.41 64.2545 133.86 64.0545C133.31 63.8545 131.66 63.4045 130.26 63.0045C128.71 62.6045 125.26 62.3045 122.11 62.3045C118.96 62.3045 115.51 62.6045 114.01 63.0045C112.56 63.4045 110.91 63.8545 110.36 64.0545C109.81 64.2545 108.41 64.8545 107.26 65.3545C106.06 65.8545 104.91 66.3045 104.61 66.3045C104.31 66.3045 103.86 65.7045 103.61 64.9545C103.31 64.1545 103.16 63.5545 103.21 63.5045C103.31 63.5045 104.16 63.1045 105.11 62.7045C106.06 62.2545 107.76 61.5545 108.86 61.1545C109.96 60.7545 111.86 60.1545 113.11 59.8545Z" fill="#477AE5"/>
<path d="M52.3596 65.5545C53.6096 62.8045 55.0096 60.0545 55.4596 59.4045C55.8596 58.7545 56.5596 58.3045 57.0096 58.4045C57.5596 58.5045 57.8096 59.0045 57.7596 59.8045C57.7596 60.5045 57.4596 61.9545 57.1096 63.0545C56.8096 64.1545 56.3096 65.9545 56.0596 67.0545C55.8096 68.1545 55.3596 70.1545 55.1096 71.5545C54.8096 72.9045 54.2596 77.2045 53.8596 81.0545C53.2596 86.5545 53.2096 89.2545 53.6096 93.6545C54.1096 99.3045 54.1096 99.3045 52.8596 100.805C52.0096 101.855 51.6096 102.905 51.6096 104.305C51.6096 105.705 52.0096 106.755 52.8596 107.805C53.5596 108.655 54.4596 109.305 54.8596 109.305C55.2596 109.305 55.8096 109.705 56.0596 110.155C56.3096 110.655 57.1096 112.855 57.8596 115.055C58.5596 117.255 60.1096 120.955 61.2596 123.305C62.4096 125.655 64.4096 129.205 65.7096 131.155C67.0596 133.155 68.3596 134.905 68.6096 135.055C68.9096 135.205 69.1096 135.805 69.1096 136.405C69.1596 137.205 67.6596 139.005 59.6096 146.805L57.2596 146.455C55.1596 146.155 54.6096 146.305 53.0096 147.455C51.3596 148.605 51.1096 149.104 51.0096 150.905C50.8596 152.854 50.6596 153.155 47.8596 155.105C46.2096 156.305 44.0596 157.655 43.1096 158.205C42.1596 158.705 40.3096 159.755 39.0096 160.455C37.6596 161.205 36.3096 161.805 36.0096 161.805C35.6596 161.855 34.5096 160.955 33.5096 159.805C32.4596 158.705 31.2596 156.955 30.8596 155.905C30.4096 154.905 30.1096 153.255 30.1096 152.305C30.1096 151.155 30.7096 149.805 31.8096 148.305C32.7096 147.055 33.8096 145.305 34.2596 144.405C34.7096 143.555 35.1096 141.905 35.1096 140.805C35.1096 139.705 34.9096 138.705 34.6096 138.555C34.3096 138.405 34.1096 137.755 34.1096 137.055C34.1096 135.855 34.2596 135.805 37.0096 135.805C38.5596 135.805 40.3596 135.705 41.0096 135.555C41.6096 135.405 42.1096 134.905 42.1096 134.405C42.1596 133.955 41.8596 133.305 41.5096 133.005C41.1596 132.705 40.0596 132.205 39.1096 131.855C38.1596 131.505 36.9096 131.055 36.3596 130.805C35.8096 130.605 34.5096 130.055 33.5096 129.605C32.4596 129.155 31.4596 128.505 31.3096 128.155C31.1596 127.854 31.5596 126.405 32.2096 125.055C32.9096 123.555 33.3596 121.605 33.3596 120.155C33.3596 118.055 33.1596 117.555 31.7596 116.405C30.9096 115.655 29.4596 114.605 28.5596 114.055C27.6596 113.505 26.4596 112.455 24.8596 110.355L26.3596 108.255C27.2096 107.105 29.2096 104.905 30.8596 103.355C32.5096 101.805 35.4096 99.4045 37.3096 98.0545C39.2096 96.6545 41.4596 94.9545 42.3096 94.2545C43.1596 93.5045 44.3596 91.9545 45.0096 90.7545C45.9096 89.1045 46.3096 87.2045 46.6596 83.3045C46.8596 80.4045 47.4596 77.0545 47.9096 75.8045C48.3096 74.5545 49.0096 72.9045 49.3596 72.0545C49.7096 71.2045 51.0596 68.3045 52.3596 65.5545Z" fill="#010409"/>
<path d="M57.3096 58.4545C56.2096 58.0545 56.2096 58.0545 57.7596 55.7045C58.6096 54.3545 59.5096 53.3045 59.7096 53.3045C59.9096 53.3045 60.1096 53.6045 60.1096 53.9545C60.1096 54.2545 59.8096 55.3545 59.4596 56.3545C59.1596 57.3545 58.7596 58.3545 58.6096 58.5045C58.4596 58.6545 57.8596 58.6545 57.3096 58.4545Z" fill="#102044"/>
<path d="M85.8596 35.5045C87.8096 35.0545 91.2596 34.3545 93.6096 34.0545C95.9596 33.7045 99.0096 33.4045 100.36 33.4045C101.76 33.3545 105.46 33.6545 108.61 34.0545C111.76 34.4545 114.91 34.9045 115.61 35.0545C116.31 35.2545 117.81 35.6545 119.01 35.9545C120.16 36.3045 121.06 36.8045 120.96 37.0545C120.86 37.3045 120.31 37.8045 119.81 38.0545C119.31 38.3045 116.51 40.1045 113.61 42.0045C110.71 43.9045 107.46 46.2045 106.36 47.1545C104.56 48.6545 104.16 48.8045 102.11 48.5045C100.01 48.2045 99.7096 48.3045 97.8596 50.0545C95.9096 51.8545 95.8596 51.9545 96.1596 54.4545C96.5096 56.9545 96.4096 57.2045 93.8596 61.0545C92.4096 63.2545 90.6096 66.4045 89.8596 68.0545C89.1096 69.7045 88.2596 71.7045 88.0096 72.5545C87.7596 73.4045 87.3096 74.8545 87.0596 75.8045C86.8096 76.7545 86.2596 79.3545 85.8596 81.5545C85.4596 83.7545 85.1096 86.5045 85.1096 87.6545C85.1096 89.3545 84.8096 90.1045 83.6096 91.3045C82.4096 92.5045 82.1096 93.2545 82.1096 94.9045C82.1096 96.7045 82.3596 97.3045 85.7096 100.554L85.4096 104.554C85.2596 106.754 84.8096 109.654 84.4096 111.054C84.0096 112.404 83.3096 114.654 82.8596 116.054C82.3596 117.404 81.3096 119.904 80.4596 121.554C79.6596 123.204 77.9096 126.154 76.5596 128.054C75.2596 129.954 73.7596 132.104 73.2596 132.755C72.7596 133.405 72.1096 133.804 71.7596 133.604C71.4096 133.454 70.0096 131.654 68.6596 129.704C67.3096 127.704 65.2596 124.004 64.1096 121.554C62.9596 119.104 61.8096 116.604 61.5596 116.054L61.5261 115.962C61.3035 115.351 60.7891 113.938 60.4096 112.704C59.9596 111.354 59.6096 109.954 59.6096 109.554C59.6096 109.154 60.0596 108.205 60.6096 107.405C61.2096 106.655 61.6596 105.304 61.6096 104.454C61.6096 103.554 61.4096 102.354 61.1096 101.804C60.8096 101.254 59.8096 100.354 57.1096 98.8045V89.0545C57.1096 82.3545 57.3596 77.8545 57.9096 74.7045C58.3596 72.1545 59.3596 67.7045 60.1096 64.8045C60.8596 61.9045 62.1596 57.7545 62.9596 55.5545C63.8096 53.3545 65.1596 50.0545 66.0096 48.2045C67.2096 45.6545 68.2096 44.3545 69.9596 43.0545C71.3096 42.0545 74.6096 40.2045 77.3596 38.8545C80.1096 37.5045 83.9096 36.0045 85.8596 35.5045Z" fill="#010409"/>
<path d="M88.1097 31.8545C89.6097 31.5545 91.5597 31.2045 92.3597 31.1045C93.1597 31.0045 98.0097 30.9545 103.11 31.0545C108.21 31.1045 113.46 31.4545 114.86 31.8045C116.21 32.1545 119.16 32.8545 121.36 33.4045C123.56 34.0045 127.16 35.2545 129.36 36.3045C131.56 37.3045 135.16 39.3545 137.36 40.8045C139.56 42.3045 142.91 45.0545 144.86 46.9045C148.06 49.9545 148.56 50.2545 150.46 50.3045C152.11 50.3045 152.96 50.6545 154.06 51.6545C154.86 52.4545 155.66 53.7045 155.86 54.5545C156.06 55.4045 155.96 56.6045 155.66 57.3045C155.36 58.0045 154.66 59.0045 154.06 59.5545C153.31 60.2545 152.31 60.5545 150.76 60.5545C148.81 60.5545 148.31 60.3045 147.01 58.8045C145.61 57.2045 145.51 56.8545 146.16 52.5545L142.51 49.0545C140.51 47.1045 137.51 44.6045 135.86 43.4545C134.21 42.3545 131.46 40.7045 126.61 38.3045L122.51 40.4045C120.21 41.5545 117.01 43.4045 115.36 44.5045C113.71 45.5545 111.26 47.4045 109.86 48.5045C108.51 49.6045 107.16 50.9045 106.86 51.3045C106.61 51.7045 106.41 52.9045 106.36 53.9545C106.36 55.5045 106.01 56.2045 104.76 57.3545C103.61 58.3545 102.61 58.8045 101.51 58.8045C100.36 58.8045 99.4597 59.2045 98.5597 60.1545C97.8597 60.9545 96.7597 62.3045 96.2097 63.1545C95.4597 64.3045 94.7097 64.8045 93.8597 64.8045C93.1597 64.8045 92.5097 64.5545 92.3597 64.3045C92.2097 64.0545 93.1097 62.3045 94.3097 60.4045C96.3597 57.2545 96.4597 56.9045 96.1597 54.4545C95.8597 51.9545 95.9097 51.8545 97.8597 50.0545C99.7097 48.3045 100.01 48.2045 102.11 48.5045C104.16 48.8045 104.56 48.6545 106.36 47.1545C107.46 46.2045 110.71 43.9045 113.61 42.0045C116.51 40.1045 119.31 38.3045 119.81 38.0545C120.31 37.8045 120.86 37.3045 120.96 37.0545C121.06 36.8045 120.16 36.3045 119.01 35.9545C117.81 35.6045 115.76 35.1045 114.36 34.8545C113.01 34.5545 109.41 34.1045 106.36 33.7545C102.06 33.3045 99.7597 33.3045 95.8597 33.7545C93.1097 34.1045 88.9597 34.8045 86.6097 35.4045C84.2597 35.9545 80.1097 37.5045 77.3597 38.8545C74.6097 40.2045 71.3097 42.0545 70.0097 43.0545C68.2097 44.3545 67.2097 45.6545 66.0097 48.1545C65.1597 50.0545 63.8097 53.3545 63.0097 55.5545C62.1597 57.7545 61.1597 60.7545 60.7097 62.2045C60.0097 64.3545 59.6597 64.8045 58.7597 64.8045C58.1097 64.8045 57.4597 64.4045 57.2597 63.9045C57.1097 63.4545 57.2097 62.2545 57.5597 61.3045C57.9097 60.3545 58.3597 59.1045 58.5597 58.5545C58.8097 58.0045 59.2597 56.9545 59.5597 56.1545C59.8597 55.4045 60.1097 54.4545 60.1097 54.0545C60.1097 53.6545 59.9597 53.3045 59.7097 53.3045C59.5097 53.3045 58.4597 54.7045 57.3097 56.4045C56.1597 58.1545 54.7597 60.5045 54.2097 61.6545C53.3597 63.3045 52.8097 63.8045 51.8597 63.8045C51.1597 63.8045 50.4597 63.5045 50.3097 63.1545C50.1597 62.8545 51.1097 60.7545 52.4097 58.5545C53.7097 56.3545 55.7097 53.3045 56.8097 51.8045C57.9097 50.3045 60.4097 47.5045 62.3597 45.6045C64.2597 43.7045 67.4097 41.1045 69.3597 39.8045C71.3097 38.5545 74.3097 36.8045 76.1097 35.9545C77.9097 35.1045 80.7097 33.9545 82.3597 33.4045C84.0097 32.8545 86.6097 32.1545 88.1097 31.8545Z" fill="#477AE5"/>
</svg>
