<svg width="383" height="346" viewBox="0 0 383 346" fill="none" xmlns="http://www.w3.org/2000/svg">
<path d="M0 346V173V0H383V346H0Z" fill="#010409"/>
<path d="M209.5 256.55C207.85 256.75 206.55 256.75 206.25 256.45C205.95 256.15 206.95 256 212.25 256.1L209.5 256.55Z" fill="#102044"/>
<path d="M90.65 256.95C89.7 257 89.1 256.8 89.25 256.5C89.45 256.2 91.35 256.05 93.65 256.05C97.7 256.15 97.7 256.15 95 256.5C93.5 256.75 91.5 256.9 90.65 256.95Z" fill="#102044"/>
<path d="M126 250V246.75C126 244.95 126.15 243.5 126.35 243.5C126.6 243.5 127.35 244.85 128.1 246.5C128.9 248.15 129.5 249.6 129.5 249.75C129.5 249.9 128.7 250 126 250Z" fill="#071023"/>
<path d="M146.85 248.2C147.25 247.1 147.95 245.5 148.35 244.65V244.6C148.75 243.75 149.3 243 149.55 243C149.8 243 150 245.1 150 247.6C150 251.35 149.9 252.15 149.4 251.6C149.05 251.25 148.15 251 147.4 251C146.6 251 146 250.8 146.05 250.55C146.05 250.3 146.45 249.25 146.85 248.2Z" fill="#102044"/>
<path d="M119.9 245.1C119.85 235.8 120 228 120.25 227.85C120.5 227.65 120.75 227.5 120.85 227.5C120.9 227.5 121 235.4 121 245C121 256.5 120.85 262.4 120.5 262.25C120.2 262.1 119.95 255.8 119.9 245.1Z" fill="#1E4396"/>
<path d="M336.5 262.75C336.15 262.9 336 256.85 336.05 244.95C336.1 233.1 336.25 227.05 336.6 227.25C336.9 227.45 337.1 233.85 337.05 245.05C337 256.1 336.8 262.6 336.5 262.75Z" fill="#1A356F"/>
<path d="M240.5 257.75C240.2 257.6 240 251.9 240.05 241.95C240.1 231.75 240.25 226.55 240.6 226.75C240.9 226.95 241.1 232.7 241.05 242.55C241 252.65 240.85 257.9 240.5 257.75Z" fill="#1E4396"/>
<path d="M120.9 244.9C120.8 229.3 120.9 226.55 121.55 226.35C121.9 226.2 122.7 226.05 123.25 226.05C123.8 226.05 124.5 226.2 124.85 226.4C125.15 226.6 126.1 228.2 126.9 230C127.7 231.8 128.85 234.25 129.4 235.5C129.95 236.75 130.85 238.75 131.4 240C131.95 241.25 133.2 244.15 134.2 246.5C135.25 248.85 136.35 251.35 136.65 252.15C137 252.9 137.55 253.5 137.9 253.5C138.2 253.5 139 252.45 139.55 251.15L139.55 251.15C140.15 249.8 141.15 247.55 141.8 246.15C142.45 244.7 143 243.4 143 243.25C143 243.1 143.65 241.6 144.4 239.9C145.2 238.15 146.25 235.75 146.8 234.55C147.3 233.3 148.45 230.95 149.25 229.3C150.55 226.7 150.95 226.25 152.25 226.1C153.05 226.05 154.05 226.25 154.4 226.6C154.9 227.1 155.05 231.15 155 245.25C154.95 261.65 154.9 263.3 154.1 263.85C153.65 264.2 152.9 264.45 152.5 264.45C152.1 264.45 151.35 264.1 150.85 263.6C150.05 262.85 149.95 261.7 150 252.9C150 246.6 149.8 243 149.5 243C149.2 243 148.7 243.75 148.3 244.65C147.9 245.5 147.1 247.5 146.5 249C145.9 250.5 144.95 252.75 144.4 254C143.85 255.25 142.85 257.45 142.2 258.9C141.55 260.3 141 261.65 141 261.9C141 262.1 140.5 262.75 139.85 263.4C139.25 264 138.3 264.5 137.75 264.5C137.2 264.5 136.35 264.1 135.85 263.6C135.35 263.15 134.95 262.6 135 262.4C135 262.15 134.45 260.8 133.8 259.4C133.15 257.95 132.15 255.75 131.6 254.5C131.05 253.25 130.25 251.35 129.8 250.25C129.35 249.15 128.45 247.2 127.85 245.85C127.25 244.55 126.6 243.5 126.4 243.5C126.15 243.5 126 247.85 126 253.15C126 261.55 125.85 262.85 125.1 263.65C124.65 264.15 123.8 264.55 123.25 264.5C122.7 264.5 121.95 264.25 121.6 263.9C121.15 263.4 120.95 258.95 120.9 244.9Z" fill="#477AE5"/>
<path d="M330.9 245.1C330.8 229.6 330.9 226.6 331.5 226.1C331.9 225.75 333.05 225.5 335.75 225.75L336 264L334.8 264.65C333.75 265.15 333.35 265.1 331 263.5L330.9 245.1Z" fill="#477AE5"/>
<path d="M302.55 228.5C302.9 227.55 303.35 226.45 303.6 226.15V226.1C303.9 225.8 304.85 225.5 305.8 225.5C306.9 225.5 307.65 225.8 307.95 226.35C308.2 226.85 308.75 228.25 309.15 229.5C309.55 230.75 310.6 234.1 311.5 237C312.4 239.9 313.75 244.15 314.5 246.5C315.25 248.85 316.35 252.45 317 254.5C317.6 256.55 318.3 258.75 318.55 259.35C318.8 260 319 261.3 319 262.25C319 263.6 318.75 264.15 317.75 264.6C316.8 265.1 316.2 265.1 315.35 264.7C314.55 264.3 313.9 263.05 311.75 256.5H306C301.9 256.45 300.1 256.65 299.7 257.1C299.4 257.45 298.9 258.75 298.55 260C298.2 261.25 297.65 262.75 297.3 263.4C297 264.05 296.3 264.7 295.75 264.85C295.2 265 294.25 264.85 293.6 264.55C293 264.25 292.4 263.55 292.25 263C292.1 262.45 292.5 260.5 293.1 258.6C293.65 256.75 294.75 253.35 295.5 251C296.25 248.65 297.35 245.05 298 243C298.65 240.95 299.8 237.2 300.6 234.75C301.35 232.25 302.25 229.45 302.55 228.5Z" fill="#477AE5"/>
<path d="M302.3 247.85C302.6 246.95 303.4 244.5 304.05 242.4V242.35C304.7 240.25 305.4 238.5 305.6 238.5C305.8 238.5 306.2 239 306.45 239.6C306.7 240.25 307.5 242.6 308.2 244.85C308.9 247.15 309.5 249.4 309.5 249.85C309.5 250.65 309.15 250.7 305.9 250.35C303.9 250.15 302.15 249.85 302 249.7C301.85 249.55 302 248.75 302.3 247.85Z" fill="#010409"/>
<path d="M235 244.65C235 231.85 235.15 227.25 235.6 226.5C236.1 225.7 236.65 225.5 239.75 225.75L239.9 241.5C240 255.6 240.15 257.35 240.9 258.15C241.65 258.9 242.65 259.05 248.4 259C252 259 255.45 259.25 256 259.5C256.65 259.8 257 260.5 257 261.4C257 262.15 256.6 263.15 256.1 263.65C255.35 264.45 254.25 264.55 237 264.5L236 263.15C235 261.8 234.95 261.1 235 244.65Z" fill="#477AE5"/>
<path d="M206 230.65C206 230.3 206.45 229 207.05 227.75C207.95 225.8 208.3 225.5 209.65 225.5C210.55 225.45 211.5 225.75 211.85 226.1C212.15 226.45 212.95 228.45 213.65 230.5C214.3 232.55 215.6 236.6 216.5 239.5C217.35 242.4 218.5 246 219 247.5C219.5 249 220.55 252.5 221.4 255.25C222.25 258 223.05 260.75 223.2 261.35C223.35 262 223.25 262.95 223 263.5C222.7 264.05 222.05 264.6 221.5 264.75C220.95 264.9 220 264.7 219.35 264.35C218.6 263.9 217.9 262.5 216 256.5L211.85 256.2C209.6 256 206.85 256.1 205.75 256.35C203.8 256.75 203.7 256.9 202.65 260.25C202 262.2 201.1 264.05 200.65 264.4C200.1 264.75 199.2 264.9 198.5 264.75C197.8 264.55 197.1 264.15 196.9 263.85C196.7 263.5 196.5 262.75 196.5 262.1C196.5 261.5 197.05 259.35 197.65 257.4C198.3 255.4 199.35 252.05 200 250C200.65 247.95 201.75 244.35 202.5 242C203.25 239.65 204.3 236.3 204.9 234.5C205.5 232.7 206 230.95 206 230.65Z" fill="#477AE5"/>
<path d="M206.1 249.85C206.05 249.8 206.45 248.25 207 246.4V246.35C208.05 243 208.1 243 209.9 243C211.75 243 211.75 243.05 212.75 246.1C213.3 247.85 213.8 249.6 213.95 250C214.1 250.65 213.55 250.7 210.2 250.35C208 250.15 206.2 249.9 206.1 249.85Z" fill="#010409"/>
<path d="M208.45 241.4C208.7 240.75 209.05 239.8 209.2 239.25C209.5 238.35 209.6 238.35 210.2 239C210.6 239.4 211.05 240.5 211.2 241.35C211.5 242.95 211.45 243 209.75 243C208.8 243 208 242.9 208 242.75C208 242.6 208.2 242 208.45 241.4Z" fill="#071023"/>
<path d="M166.9 228.55C166.8 227.5 167.05 226.9 168 226.35C169 225.7 171.05 225.55 178.85 225.55C188.5 225.5 188.5 225.5 189.75 226.75C190.45 227.45 191 228.25 191 228.5C191 228.8 190.45 229.55 189.75 230.25C188.7 231.35 188.1 231.5 182 231.5L181.95 244.4C181.95 251.45 181.8 258.8 181.6 260.65C181.4 262.8 181 264.2 180.5 264.5C180.1 264.75 179.35 265 178.9 265C178.4 265 177.55 264.55 177 264C176.05 263.05 176 262.35 176 231.5H172.75C170.75 231.5 169 231.2 168.25 230.75C167.45 230.25 166.95 229.5 166.9 228.55Z" fill="#477AE5"/>
<path d="M91.9 228.6C91.85 228.25 92.2 227.4 92.7 226.75C93.3 225.9 94.1 225.5 95.15 225.5C96.05 225.45 97 225.75 97.3 226.1C97.55 226.45 98.55 229.1 99.5 232C100.4 234.9 101.55 238.5 102 240C102.45 241.5 103.55 245 104.45 247.75C105.3 250.5 106.7 254.9 107.5 257.5C108.35 260.1 109 262.35 109 262.5C109 262.65 108.55 263.25 108 263.9C107.45 264.5 106.55 265 106 265C105.45 265 104.6 264.55 104.1 264.05C103.65 263.5 102.95 262 102.6 260.65C102.25 259.35 101.75 257.9 101.55 257.5C101.3 257.05 100 256.6 98.45 256.35C96.95 256.15 94.3 256.05 89.35 256.25L88.6 258.5C88.2 259.75 87.6 261.4 87.3 262.2C87 263 86.25 264.05 85.6 264.45C84.65 265.1 84.25 265.15 83.2 264.65C82.3 264.15 82 263.6 82 262.25C82 261.3 82.7 258.3 83.55 255.65C84.4 252.95 85.5 249.5 86 248C86.5 246.5 87.6 242.9 88.5 240C89.35 237.1 90.5 233.5 91.05 232C91.55 230.5 91.95 228.95 91.9 228.6Z" fill="#477AE5"/>
<path d="M93.5 242.5C93.9 241.25 94.35 239.85 94.6 239.4V239.35C94.85 238.9 95.25 238.5 95.55 238.5C95.85 238.5 96.3 239.55 96.6 240.85C96.85 242.2 97.55 244.5 98.05 246C98.55 247.5 99 249.15 99 249.6C99 250.4 98.5 250.5 95.25 250.5C92.25 250.5 91.5 250.35 91.5 249.75C91.5 249.35 91.8 248.05 92.2 246.85C92.55 245.7 93.15 243.75 93.5 242.5Z" fill="#010409"/>
<path d="M48 229.3C48.4 228.8 49.75 227.7 51 226.9C53.05 225.65 53.65 225.5 57.6 225.5C61.15 225.5 62.35 225.7 63.85 226.55C64.9 227.15 66.2 227.95 66.7 228.45C67.2 228.9 68.15 230.35 68.8 231.75C69.45 233.1 70 235.1 70 236.1C70 237.5 69.7 238.2 68.85 238.75C68.25 239.15 67.55 239.5 67.25 239.5C66.95 239.5 66.35 239.2 65.9 238.85C65.4 238.5 64.75 237.25 64.45 236C64.2 234.75 63.55 233.35 63.1 232.8C62.65 232.3 61.65 231.6 60.85 231.2C60.1 230.8 58.75 230.5 57.85 230.5C57 230.5 55.4 230.8 54.35 231.25C53.1 231.75 52.2 232.6 51.6 233.8C50.8 235.5 50.8 235.65 51.75 237.4C52.6 238.9 53.85 239.8 59.25 242.65C62.85 244.5 66.4 246.65 67.15 247.4C67.95 248.15 68.9 249.55 69.3 250.5C69.7 251.45 70 253.05 70 254C70 254.95 69.7 256.6 69.25 257.6C68.85 258.65 67.75 260.3 66.85 261.3C66 262.3 64.45 263.45 63.5 263.95C62.3333 264.483 60.4167 264.75 57.75 264.75C55.05 264.75 53.2 264.5 52 263.9C51.05 263.45 49.65 262.45 48.95 261.65C48.2 260.9 47.25 259.5 46.8 258.6C46.3 257.6 46.05 256 46.1 254.45C46.2 252.65 46.5 251.7 47.1 251.3C47.7 250.9 48.4 250.9 49.35 251.25C50.5 251.65 50.8 252.15 51.05 253.75C51.2 254.85 51.55 256.25 51.9 256.85C52.25 257.5 53.15 258.35 54 258.75C54.85 259.15 56.55 259.5 57.85 259.5C59.55 259.5 60.75 259.2 61.95 258.4C62.95 257.75 63.85 256.6 64.1 255.75C64.35 254.95 64.4 253.75 64.25 253.1C64.1 252.5 63.7 251.7 63.4 251.3C63.05 250.95 60.05 249.25 56.75 247.55C53.45 245.85 50 243.7 49.1 242.85C48.15 241.95 47.1 240.65 46.7 239.85C46.3 239.1 46 237.15 46 235.5C46 233.85 46.3 232 46.6 231.35C46.95 230.75 47.6 229.8 48 229.3Z" fill="#477AE5"/>
<path d="M237.6 147C237.9 145.75 238.25 144.55 238.4 144.35C238.5 144.15 238.9 144.05 239.2 144.2C239.5 144.4 240.15 144.65 240.65 144.85C241.15 145.1 241.45 145.5 241.35 145.75C241.25 146.05 240.9 147.4 240.6 148.75C240.3 150.15 239.8 152.3 239.5 153.65C239.25 154.95 239 158.55 239 161.65C239 164.7 239.35 168.8 239.7 170.75C240.1 172.7 240.65 175.05 240.9 176C241.15 176.95 241.95 179.1 242.7 180.75C243.45 182.4 244.6 184.5 245.3 185.4C246.35 186.8 246.8 187 248.75 187C250.4 187 251.4 187.3 252.5 188.25C253.8 189.35 254 189.85 254 192C254 194.15 253.8 194.65 252.5 195.75C251.45 196.65 250.4 197 249 197C247.45 197 246.65 196.65 245.5 195.5C244.25 194.25 244 193.6 244 191.5C244 189.45 243.65 188.5 242.1 186.15C241.05 184.55 239.7 182 239.15 180.5C238.6 179 237.85 176.85 237.55 175.75C237.3 174.65 236.8 172.55 236.5 171.15C236.25 169.7 236 165.2 236 161.2C236 157.2 236.2 152.9 236.5 151.6C236.8 150.3 237.3 148.25 237.6 147Z" fill="#1E4396"/>
<path d="M124.95 149.6C124.95 146.65 125.1 146 126.35 144.3L127.75 142.4L130.25 144.9L129.15 146.45C128.5 147.3 128 148.75 128 149.6C128 150.5 128.3 152.1 128.75 153.1C129.15 154.15 130.35 155.9 131.4 157C132.4 158.15 133.55 159.05 133.9 159C134.2 159 135.45 158.45 136.65 157.8C137.8 157.15 139.65 156.15 140.75 155.5C141.85 154.9 144.15 153.4 149 150H153.75C157.2 150 158.5 150.15 158.5 150.6C158.5 150.95 157.95 151.8 157.3 152.5C156.25 153.55 155.65 153.7 152.9 153.65C150.2 153.6 149.45 153.8 147.75 154.95C146.65 155.7 144.2 157.2 142.3 158.3C140.4 159.35 138.7 160.45 138.55 160.7C138.4 160.9 138.6 161.3 139 161.55C139.4 161.8 140.75 162.1 142 162.25C143.25 162.4 145.15 162.75 146.25 163C147.35 163.25 149.7 163.8 151.5 164.25C153.3 164.65 155.45 165.35 156.25 165.75C157.05 166.2 158.9 166.5 160.25 166.5C162.2 166.5 162.95 166.7 163.8 167.6C164.4 168.25 165.05 169.3 165.25 170C165.45 170.7 165.45 171.8 165.3 172.5C165.15 173.2 164.4 174.35 163.7 175.1C162.65 176.2 161.9 176.5 160.3 176.5C158.6 176.45 157.95 176.15 156.65 174.75C155.3 173.35 155 172.6 155 170.85C155.05 168.767 155.001 168.75 152.463 167.872L152.4 167.85C150.95 167.3 148.3 166.6 146.5 166.2C144.7 165.8 142.55 165.5 141.75 165.5C140.95 165.5 139.25 165.2 138 164.8C136.75 164.45 134.8 163.65 133.65 163.05C132.45 162.5 130.55 161.05 129.35 159.85C128.2 158.7 126.75 156.7 126.1 155.35C125.3 153.7 125 152 124.95 149.6Z" fill="#1E4396"/>
<path d="M119.9 107.45C119.85 106.2 120 105 120.25 104.85C120.5 104.65 121.05 104.85 121.45 105.25C121.9 105.65 122.55 106 122.85 106C123.25 106 123.4 106.4 123.25 107C123.1 107.65 123.5 108.55 124.35 109.55C125.15 110.45 126.55 111.55 127.5 112C128.45 112.5 129.7 113.4 130.25 114C130.95 114.75 131.25 115.8 131.25 117.45C131.25 118.8 130.8 120.75 130.1 122.25C129.45 123.65 129.05 125.05 129.2 125.4C129.35 125.7 130.35 126.35 131.35 126.8C132.4 127.25 133.7 127.8 134.25 128C134.8 128.25 136.05 128.7 137 129.05C137.95 129.4 139.05 129.9 139.4 130.2C139.75 130.5 140.05 131.15 140 131.65C140 132.1 139.5 132.6 138.85 132.75C138.25 132.9 136.45 133 134.9 133C132.15 133 132 133.05 132 134.25C132 134.95 132.2 135.6 132.5 135.75C132.8 135.9 133 136.9 133 138C133 139.1 132.55 140.9 132 142C131.45 143.1 130.7 144.15 130.35 144.3C130.05 144.5 129.35 144.2 128.85 143.7C128.05 142.8 128.05 142.65 130.1 138.25L129.05 135.75C128.45 134.4 128 132.95 128 132.65C128 132.3 128.3 131.55 128.6 131C129.15 130.15 129.05 129.85 127.6 128.4C126.3 127.1 125.95 126.35 126 124.9C126 123.8 126.45 122.4 127 121.65C127.7 120.75 128.05 119.5 128 118.15C128 116.1 127.85 115.9 125.4 114.4C123.95 113.5 122.15 112.1 121.4 111.25C120.35 110.1 120 109.2 119.9 107.45Z" fill="#2B54AB"/>
<path d="M257 110.25C257.55 108.05 258 105.75 258 105.15V105.1C258 104.15 258.25 104 261.5 104L261.25 106.35C261.1 107.7 260.7 109.65 260.4 110.75C260.1 111.85 259.4 114.1 258.9 115.75C258.35 117.4 256.95 120.8 255.75 123.25C254.6 125.7 252.8 128.95 251.8 130.35C250.25 132.6 250 133.4 250 135.75C250 138.15 249.8 138.7 248.45 140C247.3 141.15 246.45 141.5 244.95 141.5C243.15 141.5 242.95 141.65 242.4 143.25C241.9 144.55 241.5 145 240.8 144.9C240.3 144.8 239.6 144.35 239.3 143.9C238.9 143.25 238.9 142.75 239.4 142C239.7 141.45 240 139.4 240 137.35C240 134.3 240.2 133.55 241.15 132.6C242 131.75 242.8 131.5 244.5 131.5C246.2 131.5 247 131.25 247.85 130.4C248.4 129.75 249.35 128.4 249.95 127.35C250.55 126.35 251.4 124.75 251.9 123.85C252.4 123 253.55 120.45 254.4 118.25C255.25 116.05 256.45 112.45 257 110.25Z" fill="#2B54AB"/>
<path d="M182.3 108.1C182.7 106.7 183.05 105.05 183.1 104.45C183.15 103.75 183.4 103.5 183.85 103.7C184.2 103.85 184.95 104 185.5 104C186.4 104 186.45 104.25 186.2 106.1C186.05 107.3 185.5 109.7 184.95 111.5C184.4 113.3 183.6 115.5 183.2 116.35C182.85 117.25 182.1 118.85 181.65 119.85C181.15 120.9 179.85 123.25 178.75 125.1C177.65 126.9 174.8 130.8 172.4 133.7C169.95 136.6 166 140.75 163.5 142.85C159.6 146.25 159 146.95 159 150H149V148C149 146.25 149.25 145.85 150.9 144.65C152.5 143.5 153.05 143.35 157.5 144L162.25 139.35C165.55 136.2 167.05 134.4 167 133.6C167 133 166.8 132.4 166.5 132.25C166.2 132.1 165.15 130.7 164.05 129.1C163 127.55 161.25 124.55 160.15 122.5C159.1 120.45 157.6 117.25 156.85 115.35C156.1 113.5 155.5 111.85 155.5 111.6C155.5 111.4 156.1 110.95 156.9 110.65C157.95 110.15 158.3 110.15 158.6 110.65C158.8 110.95 159 111.55 159 111.85C159 112.2 159.2 112.9 159.45 113.35C159.7 113.85 160.85 116.3 162 118.75C163.15 121.2 165.2 124.9 166.55 126.85C167.9 128.85 169.3 130.65 169.65 130.8C170 131 170.65 130.6 171.15 129.95C171.65 129.3 173.15 127.15 174.45 125.25C175.8 123.3 177.55 120.4 178.35 118.75C179.2 117.1 180.25 114.6 180.75 113.25C181.2 111.85 181.9 109.55 182.3 108.1Z" fill="#2B54AB"/>
<path d="M238.2 110.75C241.15 109.25 242.85 108 244.85 105.7C247 103.25 247.65 102.85 247.95 103.45C248.2 103.9 248.75 104.35 249.25 104.5C250 104.7 249.55 105.4 246.95 108.15C244.65 110.65 242.8 112.05 240.25 113.3C238.3 114.25 235.2 115.35 233.25 115.75C231.3 116.15 228.95 116.5 228 116.5C227.05 116.45 225 116.15 223.5 115.8C222 115.4 220.3 114.95 219.75 114.75C219.2 114.55 218.05 114.1 217.25 113.75C216.45 113.4 214.65 112.1 213.3 110.9C211.95 109.7 210.4 108.1 208.75 105.9L210.95 103.75L213.1 106.2C214.3 107.55 216.15 109.25 217.25 110C218.35 110.7 220.25 111.65 221.5 112.05C222.9 112.5 225.75 112.75 229 112.75C234.1 112.7 234.35 112.65 238.2 110.75Z" fill="#2B54AB"/>
<path d="M203.95 85.9C204.25 85.1 205.25 84.05 206.15 83.5H206.1C207 82.95 208.15 82.5 208.6 82.5C209.1 82.5 210.2 82.85 211 83.25C211.8 83.65 212.85 84.65 213.25 85.5C213.65 86.35 214 87.45 214 88C214 88.55 213.75 89.5 213.5 90.1C213.2 90.75 212.1 91.75 211 92.35C209.1 93.45 209 93.6 209 96C209 97.35 209.45 99.7 210 101.1C210.9 103.6 210.95 103.8 210.1 104.65C209.65 105.15 209.1 105.55 208.85 105.5C208.65 105.5 208.2 104.75 207.8 103.85C207.4 103 206.85 101.45 206.55 100.5C206.25 99.55 206 97.45 206 95.85C206 93.85 205.7 92.6 205.05 91.65C204.5 90.85 203.9 89.6 203.75 88.75C203.55 87.9 203.65 86.65 203.95 85.9Z" fill="#3966C6"/>
<path d="M256.4 73.25C256.05 72.15 255.6 70.95 255.3 70.65V70.6C254.9 70.15 255.2 70 256.75 70C258.65 70 258.8 70.1 259.35 71.85C259.7 72.9 260.2 74.85 260.45 76.25C260.75 77.6 261.2 80.1 261.5 81.75C261.75 83.4 262 88.35 262 92.75C262 97.15 261.85 101.5 261.65 102.4C261.3 103.85 261.05 104 259.6 104C258.2 104 258.05 103.85 258.25 102.85C258.4 102.25 258.65 99.25 258.85 96.25C259 93.05 258.9 88.45 258.55 85.25C258.25 82.2 257.75 78.75 257.45 77.5C257.15 76.25 256.7 74.35 256.4 73.25Z" fill="#3966C6"/>
<path d="M190.15 68.9C189.9 68.7 190.15 67.75 190.65 66.75C191.15 65.8 191.7 65 191.9 65C192.1 64.95 192.55 65.25 192.85 65.6C193.35 66.1 193.2 66.55 192 67.75C191.2 68.6 190.35 69.1 190.15 68.9Z" fill="#071023"/>
<path d="M154.2 62.9L154.2 62.9C154.45 61.65 154.65 61.55 156.1 61.85C157 62 157.8 62.15 157.85 62.2C157.9 62.25 157.6 63.5 157.2 65C156.8 66.5 156.15 69.7 155.75 72.1C155.25 75 155 79.85 155 96L156.75 97C157.7 97.55 158.75 98.45 159 99C159.3 99.55 159.5 100.75 159.5 101.65C159.55 102.5 159.1 103.85 158.5 104.65C157.8 105.6 157.55 106.5 157.75 107.75C157.9 108.75 157.75 109.8 157.4 110.25C157.05 110.7 156.35 111.05 155.9 111C155.4 111 155 110.65 155 110.25C155 109.85 154.65 108.85 154.25 108C153.85 107.15 153.15 106.5 152.75 106.5C152.35 106.5 151.45 105.85 150.75 105C149.9 103.95 149.5 102.9 149.5 101.5C149.5 100.1 149.9 99.05 150.75 98C152 96.5 152 96.5 151.5 90.9C151.15 87.05 151.15 83.5 151.5 79.75C151.8 76.7 152.25 72.9 152.55 71.25C152.85 69.6 153.25 67.35 153.5 66.25C153.75 65.15 154.05 63.6501 154.2 62.9Z" fill="#3966C6"/>
<path d="M238.1 63.3C238.6 63 239 62.35 239.05 61.85C239.1 61 239.15 61 240.6 61.85C241.45 62.35 243.45 64.05 245.05 65.6C246.7 67.2 248.7 69.55 249.5 70.85C250.35 72.2 251.75 75.05 252.6 77.25C254.15 81.1 254.2 81.55 254.2 88.25C254.15 94.6 254.05 95.55 252.8 98.75C252.05 100.65 251.15 102.75 250.75 103.35C250.35 104 249.6 104.45 249.1 104.35C248.6 104.3 248.2 103.75 248.1 103C248.05 102.3 248.15 101.55 248.4 101.25C248.65 100.95 249.4 99.3 250.05 97.5C251 94.8 251.2 93.25 251.2 88.5C251.2 85 250.95 81.95 250.55 80.75C250.2 79.65 249.15 77.3 248.3 75.5C247.4 73.65 245.5 70.9 243.75 69.05C242.1 67.35 239.95 65.45 239 64.85C237.45 63.95 237.35 63.75 238.1 63.3Z" fill="#3966C6"/>
<path d="M192.9 66.95C194.2 65.65 196.5 63.8 198 62.8C199.5 61.8 200.85 61 200.95 61C201.1 61 201.5 61.65 201.85 62.5C202.5 63.95 202.45 64.05 200.65 65.15C199.6 65.75 197.75 67.15 196.5 68.2C195.25 69.3 193.3 71.3 192.1 72.7C190.9 74.1 189.15 76.85 188.2 78.75C187 81.2 186.5 82.95 186.5 84.5C186.5 86.45 186.75 87 188.25 88.4C189.75 89.8 190 90.3 190 92.4C190 94.35 189.8 95 188.5 96.25C187.2 97.55 187 98.1 187 100.25C187 101.65 186.8 103.05 186.6 103.4C186.4 103.75 185.7 104 185 103.9C183.85 103.75 183.75 103.55 183.6 100.75C183.5 98.05 183.3 97.55 181.75 96C180.25 94.55 180 93.9 180 92.15C180 90.45 180.3 89.7 181.5 88.5C182.7 87.3 183 86.55 183 84.9C183 83.7 183.35 80.95 183.75 78.75C184.15 76.55 184.7 73.95 184.95 73C185.2 72.05 185.65 70.6 185.9 69.75C186.15 68.9 187.05 66.75 187.95 64.9C189.5 61.55 189.5 61.5 191.1 61.8C192 62 192.8 62.15 192.9 62.2C192.95 62.25 192.25 63.65 191.4 65.35C190.5 67.1 189.9 68.65 190.15 68.85C190.35 69.1 191.6 68.2 192.9 66.95Z" fill="#3966C6"/>
<path d="M143.9 69C144.75 66.95 145.9 64.2 146.45 62.9C147.45 60.65 147.6 60.55 149.15 60.85C150 61 150.8 61.15 150.8 61.2C150.85 61.25 150.5 62.15 150 63.25C149.45 64.35 148.5 66.5 147.8 68C147.15 69.5 146.2 71.75 145.8 73C145.35 74.25 144.75 77.6 144.55 80.5C144.2 84.4 143.8 86.3 142.9 87.95C142.25 89.15 141.05 90.7 140.2 91.45C139.35 92.15 137.2 93.75 135.45 95C133.7 96.25 130.25 99.2 127.85 101.65C125.4 104.05 123.15 106 122.85 106C122.5 106.05 121.95 105.7 121.65 105.25C121.1 104.65 121.2 104.25 121.95 103.15C122.5 102.35 124.55 100.15 126.6 98.2C128.6 96.25 131.4 93.9 132.75 92.95C134.15 92.05 136.25 90.4 137.45 89.25C138.65 88.15 139.95 86.65 140.3 85.9C140.7 85.1 141 83.05 141 81.25C141 79.45 141.3 76.8 141.7 75.4C142.1 73.95 143.1 71.05 143.9 69Z" fill="#3966C6"/>
<path d="M250.55 63.3C250.95 62.5 251.8 61.45 252.45 60.9C253.15 60.4 254.5 60 255.6 60C256.867 60 257.917 60.3833 258.75 61.15C259.45 61.75 260.15 63 260.3 64C260.5 65.15 260.3 66.5 259.65 67.9C258.75 69.95 258.7 70 256.25 70C254.55 70.05 253.35 69.75 252.5 69.1C251.8 68.6 250.95 67.4 250.55 66.45C250 65 250 64.55 250.55 63.3Z" fill="#477AE5"/>
<path d="M211 57.05C212.25 56.75 213.8 56.4 214.5 56.3C215.2 56.15 218.35 56.15 221.5 56.3C224.65 56.4 228.35 56.8 229.75 57.2C231.1 57.6 233.25 58.3 234.5 58.8C235.75 59.3 237.25 60 237.85 60.35C238.5 60.7 239 61.45 239 62C239 62.6 238.6 63.1 238 63.25C237.45 63.4 236.05 63.05 234.9 62.55C233.7 62.05 232.3 61.45 231.75 61.25C231.2 61.05 229.55 60.6 228.15 60.2C226.6 59.8 223.15 59.5 220 59.5C216.85 59.5 213.4 59.8 211.9 60.2C210.45 60.6 208.8 61.05 208.25 61.25C207.7 61.45 206.3 62.05 205.15 62.55C203.95 63.05 202.8 63.5 202.5 63.5C202.2 63.5 201.75 62.9 201.5 62.15C201.2 61.35 201.05 60.75 201.1 60.7C201.2 60.7 202.05 60.3 203 59.9C203.95 59.45 205.65 58.75 206.75 58.35C207.85 57.95 209.75 57.35 211 57.05Z" fill="#477AE5"/>
<path d="M150.25 62.75C151.5 60 152.9 57.25 153.35 56.6C153.75 55.95 154.45 55.5 154.9 55.6C155.45 55.7 155.7 56.2 155.65 57C155.65 57.7 155.35 59.15 155 60.25C154.7 61.35 154.2 63.15 153.95 64.25C153.7 65.35 153.25 67.35 153 68.75C152.7 70.1 152.15 74.4 151.75 78.25C151.15 83.75 151.1 86.45 151.5 90.85C152 96.5 152 96.5 150.75 98C149.9 99.05 149.5 100.1 149.5 101.5C149.5 102.9 149.9 103.95 150.75 105C151.45 105.85 152.35 106.5 152.75 106.5C153.15 106.5 153.7 106.9 153.95 107.35C154.2 107.85 155 110.05 155.75 112.25C156.45 114.45 158 118.15 159.15 120.5C160.3 122.85 162.3 126.4 163.6 128.35C164.95 130.35 166.25 132.1 166.5 132.25C166.8 132.4 167 133 167 133.6C167.05 134.4 165.55 136.2 157.5 144L155.15 143.65C153.05 143.35 152.5 143.5 150.9 144.65C149.25 145.8 149 146.3 148.9 148.1C148.75 150.05 148.55 150.35 145.75 152.3C144.1 153.5 141.95 154.85 141 155.4C140.05 155.9 138.2 156.95 136.9 157.65C135.55 158.4 134.2 159 133.9 159C133.55 159.05 132.4 158.15 131.4 157C130.35 155.9 129.15 154.15 128.75 153.1C128.3 152.1 128 150.45 128 149.5C128 148.35 128.6 147 129.7 145.5C130.6 144.25 131.7 142.5 132.15 141.6C132.6 140.75 133 139.1 133 138C133 136.9 132.8 135.9 132.5 135.75C132.2 135.6 132 134.95 132 134.25C132 133.05 132.15 133 134.9 133C136.45 133 138.25 132.9 138.9 132.75C139.5 132.6 140 132.1 140 131.6C140.05 131.15 139.75 130.5 139.4 130.2C139.05 129.9 137.95 129.4 137 129.05C136.05 128.7 134.8 128.25 134.25 128C133.7 127.8 132.4 127.25 131.4 126.8C130.35 126.35 129.35 125.7 129.2 125.35C129.05 125.05 129.45 123.6 130.1 122.25C130.8 120.75 131.25 118.8 131.25 117.35C131.25 115.25 131.05 114.75 129.65 113.6C128.8 112.85 127.35 111.8 126.45 111.25C125.55 110.7 124.35 109.65 122.75 107.55L124.25 105.45C125.1 104.3 127.1 102.1 128.75 100.55C130.4 99 133.3 96.6 135.2 95.25C137.1 93.85 139.35 92.15 140.2 91.45C141.05 90.7 142.25 89.15 142.9 87.95C143.8 86.3 144.2 84.4 144.55 80.5C144.75 77.6 145.35 74.25 145.8 73C146.2 71.75 146.9 70.1 147.25 69.25C147.6 68.4 148.95 65.5 150.25 62.75Z" fill="#010409"/>
<path d="M155.2 55.65C154.1 55.25 154.1 55.25 155.65 52.9C156.5 51.55 157.4 50.5 157.6 50.5C157.8 50.5 158 50.8 158 51.15C158 51.45 157.7 52.55 157.35 53.55C157.05 54.55 156.65 55.55 156.5 55.7C156.35 55.85 155.75 55.85 155.2 55.65Z" fill="#102044"/>
<path d="M183.75 32.7C185.7 32.25 189.15 31.55 191.5 31.25C193.85 30.9 196.9 30.6 198.25 30.6C199.65 30.55 203.35 30.85 206.5 31.25C209.65 31.65 212.8 32.1 213.5 32.25C214.2 32.45 215.7 32.85 216.9 33.15C218.05 33.5 218.95 34 218.85 34.25C218.75 34.5 218.2 35 217.7 35.25C217.2 35.5 214.4 37.3 211.5 39.2C208.6 41.1 205.35 43.4 204.25 44.35C202.45 45.85 202.05 46 200 45.7C197.9 45.4 197.6 45.5 195.75 47.25C193.8 49.05 193.75 49.15 194.05 51.65C194.4 54.15 194.3 54.4 191.75 58.25C190.3 60.45 188.5 63.6 187.75 65.25C187 66.9 186.15 68.9 185.9 69.75C185.65 70.6 185.2 72.05 184.95 73C184.7 73.95 184.15 76.55 183.75 78.75C183.35 80.95 183 83.7 183 84.85C183 86.55 182.7 87.3 181.5 88.5C180.3 89.7 180 90.45 180 92.1C180 93.9 180.25 94.5 183.6 97.75L183.3 101.75C183.15 103.95 182.7 106.85 182.3 108.25C181.9 109.6 181.2 111.85 180.75 113.25C180.25 114.6 179.2 117.1 178.35 118.75C177.55 120.4 175.8 123.35 174.45 125.25C173.15 127.15 171.65 129.3 171.15 129.95C170.65 130.6 170 131 169.65 130.8C169.3 130.65 167.9 128.85 166.55 126.9C165.2 124.9 163.15 121.2 162 118.75C160.85 116.3 159.7 113.8 159.45 113.25L159.416 113.158C159.194 112.546 158.679 111.133 158.3 109.9C157.85 108.55 157.5 107.15 157.5 106.75C157.5 106.35 157.95 105.4 158.5 104.6C159.1 103.85 159.55 102.5 159.5 101.65C159.5 100.75 159.3 99.55 159 99C158.7 98.45 157.7 97.55 155 96V86.25C155 79.55 155.25 75.05 155.8 71.9C156.25 69.35 157.25 64.9 158 62C158.75 59.1 160.05 54.95 160.85 52.75C161.7 50.55 163.05 47.25 163.9 45.4C165.1 42.85 166.1 41.55 167.85 40.25C169.2 39.25 172.5 37.4 175.25 36.05C178 34.7 181.8 33.2 183.75 32.7Z" fill="#010409"/>
<path d="M186 29.05C187.5 28.75 189.45 28.4 190.25 28.3C191.05 28.2 195.9 28.15 201 28.25C206.1 28.3 211.35 28.65 212.75 29C214.1 29.35 217.05 30.05 219.25 30.6C221.45 31.2 225.05 32.45 227.25 33.5C229.45 34.5 233.05 36.55 235.25 38C237.45 39.5 240.8 42.25 242.75 44.1C245.95 47.15 246.45 47.45 248.35 47.5C250 47.5 250.85 47.85 251.95 48.85C252.75 49.65 253.55 50.9 253.75 51.75C253.95 52.6 253.85 53.8 253.55 54.5C253.25 55.2 252.55 56.2 251.95 56.75C251.2 57.45 250.2 57.75 248.65 57.75C246.7 57.75 246.2 57.5 244.9 56C243.5 54.4 243.4 54.05 244.05 49.75L240.4 46.25C238.4 44.3 235.4 41.8 233.75 40.65C232.1 39.55 229.35 37.9 224.5 35.5L220.4 37.6C218.1 38.75 214.9 40.6 213.25 41.7C211.6 42.75 209.15 44.6 207.75 45.7C206.4 46.8 205.05 48.1 204.75 48.5C204.5 48.9 204.3 50.1 204.25 51.15C204.25 52.7 203.9 53.4 202.65 54.55C201.5 55.55 200.5 56 199.4 56C198.25 56 197.35 56.4 196.45 57.35C195.75 58.15 194.65 59.5 194.1 60.35C193.35 61.5 192.6 62 191.75 62C191.05 62 190.4 61.75 190.25 61.5C190.1 61.25 191 59.5 192.2 57.6C194.25 54.45 194.35 54.1 194.05 51.65C193.75 49.15 193.8 49.05 195.75 47.25C197.6 45.5 197.9 45.4 200 45.7C202.05 46 202.45 45.85 204.25 44.35C205.35 43.4 208.6 41.1 211.5 39.2C214.4 37.3 217.2 35.5 217.7 35.25C218.2 35 218.75 34.5 218.85 34.25C218.95 34 218.05 33.5 216.9 33.15C215.7 32.8 213.65 32.3 212.25 32.05C210.9 31.75 207.3 31.3 204.25 30.95C199.95 30.5 197.65 30.5 193.75 30.95C191 31.3 186.85 32 184.5 32.6C182.15 33.15 178 34.7 175.25 36.05C172.5 37.4 169.2 39.25 167.9 40.25C166.1 41.55 165.1 42.85 163.9 45.35C163.05 47.25 161.7 50.55 160.9 52.75C160.05 54.95 159.05 57.95 158.6 59.4C157.9 61.55 157.55 62 156.65 62C156 62 155.35 61.6 155.15 61.1C155 60.65 155.1 59.45 155.45 58.5C155.8 57.55 156.25 56.3 156.45 55.75C156.7 55.2 157.15 54.15 157.45 53.35C157.75 52.6 158 51.65 158 51.25C158 50.85 157.85 50.5 157.6 50.5C157.4 50.5 156.35 51.9 155.2 53.6C154.05 55.35 152.65 57.7 152.1 58.85C151.25 60.5 150.7 61 149.75 61C149.05 61 148.35 60.7 148.2 60.35C148.05 60.05 149 57.95 150.3 55.75C151.6 53.55 153.6 50.5 154.7 49C155.8 47.5 158.3 44.7 160.25 42.8C162.15 40.9 165.3 38.3 167.25 37C169.2 35.75 172.2 34 174 33.15C175.8 32.3 178.6 31.15 180.25 30.6C181.9 30.05 184.5 29.35 186 29.05Z" fill="#477AE5"/>
</svg>
